<?xml version="1.0" encoding="UTF-8"?>
<svg enable-background="new 0 0 500 500" version="1.1" viewBox="0 0 500 500" xml:space="preserve" xmlns="http://www.w3.org/2000/svg">
	<path fill="#694387" d="m154.79 53.51c38.83 0.53 69.07 17.11 91.19 48.73 13.63 19.49 21.64 41.4 27.01 64.38 2.63 11.26 4.41 22.66 5.77 34.15 0.46 3.91-0.32 7.18-2.54 10.43-6.96 10.18-13.96 20.34-20.46 30.81-3.34 5.38-8.34 6.76-12.65-0.42-6.51-10.85-13.73-21.22-21.71-31.05-10.35-12.74-21.74-24.4-35.35-33.71-15.81-10.8-33.1-17.01-52.47-16.29-15.66 0.58-28.13 7.27-37.04 20.26-6.95 10.12-10.44 21.57-12.29 33.56-4.76 30.95 0.24 60.76 10.7 89.89 11.83 32.95 29.6 62.58 50.65 90.37 10.72 14.15 22.29 27.56 34.41 40.53 2.11 2.26 4.19 4.56 5.26 7.53 1.02 2.85-0.14 4.33-3.02 3.66-1.77-0.41-3.51-1.19-5.1-2.1-46.89-26.97-89.18-59.54-123.37-101.86-20.82-25.77-37.37-53.92-46.66-85.96-10.74-37.04-10.08-73.65 7.22-108.54 24.72-49.86 64.5-81.11 119.35-92.43 6.94-1.45 14.06-1.67 21.1-1.94z"/>
	<path fill="#A786AA" d="m500 210.07c-0.25 24.71-6.05 48.18-15.83 70.75-12.46 28.74-30.18 54-51.19 77.04-31.67 34.72-68.76 62.55-109.42 85.83-1.75 1-3.53 1.95-5.49 2.37-2.44 0.52-3.49-0.76-2.63-3.16 1.18-3.27 3.49-5.79 5.82-8.26 9.11-9.64 17.81-19.64 26.1-29.99 23.35-29.15 43.14-60.39 56.62-95.41 8.71-22.63 14.12-45.96 14.34-70.24 0.16-17.19-1.76-34.2-9.36-49.99-9.44-19.59-24.97-29.45-46.92-28.83-10.13 0.29-19.84 2.47-29.21 6.21-13.96 5.57-25.77 14.38-36.53 24.7-2.34 2.24-4.57 4.58-6.89 6.84-0.85 0.83-1.65 2.12-3.05 1.58-1.15-0.44-1.02-1.79-1.18-2.84-1.18-7.61-2.2-15.24-3.58-22.81-4.46-24.43-11.79-47.84-25.53-68.83-1.39-2.13-1.05-3.46 0.3-5.29 18.99-25.72 43.97-41.55 75.96-45.13 23.63-2.65 46.35 1.72 68.03 11.26 35.46 15.62 62.82 40.31 81.57 74.25 10.89 19.7 17.05 40.86 17.7 63.48 0.07 2.17 0.25 4.32 0.37 6.47z"/>
</svg>